# Tiled2Unity generated file. Do not modify by hand.
# Wavefront file for 'Test-A_mesh_0003.obj'

# Vertices (Count = 120)
v -240 -96 0
v -288 -96 0
v -288 -48 0
v -240 -48 0
v -144 -192 0
v -192 -192 0
v -192 -144 0
v -144 -144 0
v -192 -192 0
v -240 -192 0
v -240 -144 0
v -192 -144 0
v -240 -192 0
v -288 -192 0
v -288 -144 0
v -240 -144 0
v -336 -192 0
v -384 -192 0
v -384 -144 0
v -336 -144 0
v -144 -240 0
v -192 -240 0
v -192 -192 0
v -144 -192 0
v -192 -240 0
v -240 -240 0
v -240 -192 0
v -192 -192 0
v -240 -240 0
v -288 -240 0
v -288 -192 0
v -240 -192 0
v -144 -288 0
v -192 -288 0
v -192 -240 0
v -144 -240 0
v -192 -288 0
v -240 -288 0
v -240 -240 0
v -192 -240 0
v -240 -288 0
v -288 -288 0
v -288 -240 0
v -240 -240 0
v -624 -288 0
v -672 -288 0
v -672 -240 0
v -624 -240 0
v -48 -336 0
v -96 -336 0
v -96 -288 0
v -48 -288 0
v -144 -336 0
v -192 -336 0
v -192 -288 0
v -144 -288 0
v -192 -336 0
v -240 -336 0
v -240 -288 0
v -192 -288 0
v -240 -336 0
v -288 -336 0
v -288 -288 0
v -240 -288 0
v -240 -384 0
v -288 -384 0
v -288 -336 0
v -240 -336 0
v -720 -384 0
v -768 -384 0
v -768 -336 0
v -720 -336 0
v -48 -480 0
v -96 -480 0
v -96 -432 0
v -48 -432 0
v -96 -528 0
v -144 -528 0
v -144 -480 0
v -96 -480 0
v -192 -528 0
v -240 -528 0
v -240 -480 0
v -192 -480 0
v -240 -528 0
v -288 -528 0
v -288 -480 0
v -240 -480 0
v -672 -528 0
v -720 -528 0
v -720 -480 0
v -672 -480 0
v -48 -576 0
v -96 -576 0
v -96 -528 0
v -48 -528 0
v -96 -576 0
v -144 -576 0
v -144 -528 0
v -96 -528 0
v -144 -576 0
v -192 -576 0
v -192 -528 0
v -144 -528 0
v -192 -576 0
v -240 -576 0
v -240 -528 0
v -192 -528 0
v -240 -576 0
v -288 -576 0
v -288 -528 0
v -240 -528 0
v -624 -576 0
v -672 -576 0
v -672 -528 0
v -624 -528 0
v -672 -576 0
v -720 -576 0
v -720 -528 0
v -672 -528 0

# Texture cooridinates (Count = 32)
vt 0.375 0.6875
vt 0.4375 0.6875
vt 0.4375 0.75
vt 0.375 0.75
vt 0.1875 0.9375
vt 0.25 0.9375
vt 0.25 1
vt 0.1875 1
vt 0.3125 0.9375
vt 0.3125 1
vt 0.375 0.9375
vt 0.375 1
vt 0.5 0.875
vt 0.5625 0.875
vt 0.5625 0.9375
vt 0.5 0.9375
vt 0.1875 0.875
vt 0.25 0.875
vt 0.3125 0.875
vt 0.375 0.875
vt 0.1875 0.8125
vt 0.25 0.8125
vt 0.3125 0.8125
vt 0.375 0.8125
vt 0.4375 0.625
vt 0.5 0.625
vt 0.5 0.6875
vt 0.1875 0.75
vt 0.25 0.75
vt 0.3125 0.75
vt 0.4375 0.5625
vt 0.5 0.5625

# Normal
vn 0 0 -1

# Mesh description
g Test-A_mesh_0003

# Faces
f 1/1/1 2/2/1 3/3/1 4/4/1
f 5/5/1 6/6/1 7/7/1 8/8/1
f 9/6/1 10/9/1 11/10/1 12/7/1
f 13/9/1 14/11/1 15/12/1 16/10/1
f 17/13/1 18/14/1 19/15/1 20/16/1
f 21/17/1 22/18/1 23/6/1 24/5/1
f 25/18/1 26/19/1 27/9/1 28/6/1
f 29/19/1 30/20/1 31/11/1 32/9/1
f 33/21/1 34/22/1 35/18/1 36/17/1
f 37/22/1 38/23/1 39/19/1 40/18/1
f 41/23/1 42/24/1 43/20/1 44/19/1
f 45/1/1 46/2/1 47/3/1 48/4/1
f 49/25/1 50/26/1 51/27/1 52/2/1
f 53/28/1 54/29/1 55/22/1 56/21/1
f 57/29/1 58/30/1 59/23/1 60/22/1
f 61/30/1 62/4/1 63/24/1 64/23/1
f 65/25/1 66/26/1 67/27/1 68/2/1
f 69/25/1 70/26/1 71/27/1 72/2/1
f 73/25/1 74/26/1 75/27/1 76/2/1
f 77/31/1 78/32/1 79/26/1 80/25/1
f 81/31/1 82/32/1 83/26/1 84/25/1
f 85/31/1 86/32/1 87/26/1 88/25/1
f 89/25/1 90/26/1 91/27/1 92/2/1
f 93/31/1 94/32/1 95/26/1 96/25/1
f 97/31/1 98/32/1 99/26/1 100/25/1
f 101/31/1 102/32/1 103/26/1 104/25/1
f 105/1/1 106/2/1 107/3/1 108/4/1
f 109/31/1 110/32/1 111/26/1 112/25/1
f 113/25/1 114/26/1 115/27/1 116/2/1
f 117/1/1 118/2/1 119/3/1 120/4/1

